<svg xmlns="http://www.w3.org/2000/svg" width="154" height="35" viewBox="0 0 154 35">
  <g fill="none" transform="translate(.092 .175)">
    <path fill="#BFDFCD" d="M1.733,17.825 L1.733,10.4 L6.858,10.4 C8.67466667,10.4 10.0913333,9.95416667 11.108,9.0625 C12.1246667,8.17083333 12.633,6.90833333 12.633,5.275 C12.633,3.65833333 12.1288333,2.40833333 11.1205,1.525 C10.1121667,0.641666667 8.69133333,0.2 6.858,0.2 L6.858,0.2 L0.183,0.2 L0.183,17.825 L1.733,17.825 Z M6.758,9.075 L1.733,9.075 L1.733,1.525 L6.758,1.525 C9.64133333,1.525 11.083,2.775 11.083,5.275 C11.083,7.80833333 9.64133333,9.075 6.758,9.075 L6.758,9.075 Z M21.883,18 C22.9663333,18 23.9663333,17.7791667 24.883,17.3375 C25.7996667,16.8958333 26.608,16.2583333 27.308,15.425 L27.308,15.425 L29.433,17.825 L31.258,17.825 L28.108,14.275 C29.1913333,12.4583333 29.7663333,10.2333333 29.833,7.6 L29.833,7.6 L28.408,7.6 C28.358,9.85 27.9496667,11.725 27.183,13.225 L27.183,13.225 L22.683,8.15 C24.0996667,7.21666667 25.0663333,6.41666667 25.583,5.75 C26.0996667,5.08333333 26.358,4.31666667 26.358,3.45 C26.358,2.4 26.0205,1.56666667 25.3455,0.95 C24.6705,0.333333333 23.758,0.025 22.608,0.025 C21.3746667,0.025 20.383,0.366666667 19.633,1.05 C18.883,1.73333333 18.508,2.63333333 18.508,3.75 C18.508,4.41666667 18.658,5.05 18.958,5.65 C19.258,6.25 19.8163333,7.01666667 20.633,7.95 C19.133,8.88333333 18.0538333,9.77916667 17.3955,10.6375 C16.7371667,11.4958333 16.408,12.45 16.408,13.5 C16.408,14.3833333 16.6371667,15.1666667 17.0955,15.85 C17.5538333,16.5333333 18.1996667,17.0625 19.033,17.4375 C19.8663333,17.8125 20.8163333,18 21.883,18 Z M21.833,7.2 C21.1163333,6.36666667 20.6371667,5.71666667 20.3955,5.25 C20.1538333,4.78333333 20.033,4.28333333 20.033,3.75 C20.033,3.01666667 20.2663333,2.425 20.733,1.975 C21.1996667,1.525 21.8246667,1.3 22.608,1.3 C23.308,1.3 23.8705,1.50416667 24.2955,1.9125 C24.7205,2.32083333 24.933,2.86666667 24.933,3.55 C24.933,4.15 24.7121667,4.7125 24.2705,5.2375 C23.8288333,5.7625 23.0163333,6.41666667 21.833,7.2 Z M21.958,16.7 C20.7246667,16.7 19.7455,16.4083333 19.0205,15.825 C18.2955,15.2416667 17.933,14.4583333 17.933,13.475 C17.933,12.625 18.1955,11.8625 18.7205,11.1875 C19.2455,10.5125 20.1663333,9.75833333 21.483,8.925 L21.483,8.925 L21.4955,8.925 C21.5038333,8.925 21.508,8.91666667 21.508,8.9 L21.508,8.9 L26.433,14.45 C25.883,15.1833333 25.2246667,15.7416667 24.458,16.125 C23.6913333,16.5083333 22.858,16.7 21.958,16.7 Z M41.783,17.825 C43.633,17.825 45.0621667,17.4166667 46.0705,16.6 C47.0788333,15.7833333 47.583,14.6 47.583,13.05 C47.583,11.95 47.3038333,11.0291667 46.7455,10.2875 C46.1871667,9.54583333 45.3996667,9.05 44.383,8.8 C45.2663333,8.46666667 45.9538333,7.95833333 46.4455,7.275 C46.9371667,6.59166667 47.183,5.775 47.183,4.825 C47.183,3.34166667 46.6913333,2.2 45.708,1.4 C44.7246667,0.6 43.333,0.2 41.533,0.2 L41.533,0.2 L34.733,0.2 L34.733,17.825 L41.783,17.825 Z M41.308,8.2 L36.258,8.2 L36.258,1.525 L41.308,1.525 C44.1913333,1.525 45.633,2.61666667 45.633,4.8 C45.633,5.9 45.2663333,6.74166667 44.533,7.325 C43.7996667,7.90833333 42.7246667,8.2 41.308,8.2 L41.308,8.2 Z M41.683,16.5 L36.258,16.5 L36.258,9.55 L41.683,9.55 C44.583,9.55 46.033,10.7333333 46.033,13.1 C46.033,14.25 45.6788333,15.1041667 44.9705,15.6625 C44.2621667,16.2208333 43.1663333,16.5 41.683,16.5 L41.683,16.5 Z M65.458,18.025 C66.708,18.025 67.8038333,17.8208333 68.7455,17.4125 C69.6871667,17.0041667 70.4163333,16.4333333 70.933,15.7 C71.4496667,14.9666667 71.708,14.1166667 71.708,13.15 C71.708,12.15 71.4371667,11.3541667 70.8955,10.7625 C70.3538333,10.1708333 69.6913333,9.73333333 68.908,9.45 C68.1246667,9.16666667 67.058,8.85833333 65.708,8.525 L65.708,8.525 L65.058,8.375 C63.658,8.04166667 62.5955,7.6375 61.8705,7.1625 C61.1455,6.6875 60.783,5.95833333 60.783,4.975 C60.783,3.84166667 61.1996667,2.95833333 62.033,2.325 C62.8663333,1.69166667 64.0246667,1.375 65.508,1.375 C66.5413333,1.375 67.483,1.54583333 68.333,1.8875 C69.183,2.22916667 70.0246667,2.775 70.858,3.525 L70.858,3.525 L71.508,2.3 C70.758,1.55 69.8705,0.979166667 68.8455,0.5875 C67.8205,0.195833333 66.708,0 65.508,0 C64.2413333,0 63.1371667,0.208333333 62.1955,0.625 C61.2538333,1.04166667 60.5246667,1.625 60.008,2.375 C59.4913333,3.125 59.233,4 59.233,5 C59.233,6.08333333 59.5246667,6.94583333 60.108,7.5875 C60.6913333,8.22916667 61.4038333,8.70833333 62.2455,9.025 C63.0871667,9.34166667 64.1913333,9.65 65.558,9.95 C66.5913333,10.1833333 67.4163333,10.4125 68.033,10.6375 C68.6496667,10.8625 69.158,11.1791667 69.558,11.5875 C69.958,11.9958333 70.158,12.525 70.158,13.175 C70.158,14.275 69.7455,15.1291667 68.9205,15.7375 C68.0955,16.3458333 66.9413333,16.65 65.458,16.65 C64.208,16.65 63.1371667,16.4875 62.2455,16.1625 C61.3538333,15.8375 60.4663333,15.2833333 59.583,14.5 L59.583,14.5 L58.933,15.725 C59.7663333,16.5083333 60.7163333,17.0875 61.783,17.4625 C62.8496667,17.8375 64.0746667,18.025 65.458,18.025 Z M81.758,17.825 L81.758,1.55 L88.058,1.55 L88.058,0.2 L73.908,0.2 L73.908,1.55 L80.233,1.55 L80.233,17.825 L81.758,17.825 Z M98.458,18.025 C100.691333,18.025 102.387167,17.4333333 103.5455,16.25 C104.703833,15.0666667 105.283,13.325 105.283,11.025 L105.283,11.025 L105.283,0.2 L103.758,0.2 L103.758,11.2 C103.758,13 103.312167,14.3583333 102.4205,15.275 C101.528833,16.1916667 100.208,16.65 98.458,16.65 C94.9246667,16.65 93.158,14.8333333 93.158,11.2 L93.158,11.2 L93.158,0.2 L91.608,0.2 L91.608,11.025 C91.608,13.325 92.1871667,15.0666667 93.3455,16.25 C94.5038333,17.4333333 96.208,18.025 98.458,18.025 Z M116.508,17.825 C119.291333,17.825 121.4455,17.0583333 122.9705,15.525 C124.4955,13.9916667 125.258,11.8166667 125.258,9 C125.258,6.18333333 124.499667,4.0125 122.983,2.4875 C121.466333,0.9625 119.308,0.2 116.508,0.2 L116.508,0.2 L110.833,0.2 L110.833,17.825 L116.508,17.825 Z M116.433,16.475 L112.383,16.475 L112.383,1.55 L116.433,1.55 C121.233,1.55 123.633,4.03333333 123.633,9 C123.633,11.4833333 123.028833,13.35 121.8205,14.6 C120.612167,15.85 118.816333,16.475 116.433,16.475 L116.433,16.475 Z M131.758,17.825 L131.758,0.2 L130.208,0.2 L130.208,17.825 L131.758,17.825 Z M144.583,18.025 C146.199667,18.025 147.599667,17.6625 148.783,16.9375 C149.966333,16.2125 150.874667,15.1708333 151.508,13.8125 C152.141333,12.4541667 152.458,10.85 152.458,9 C152.458,7.15 152.141333,5.55 151.508,4.2 C150.874667,2.85 149.966333,1.8125 148.783,1.0875 C147.599667,0.3625 146.199667,0 144.583,0 C142.966333,0 141.5705,0.3625 140.3955,1.0875 C139.2205,1.8125 138.316333,2.85416667 137.683,4.2125 C137.049667,5.57083333 136.733,7.175 136.733,9.025 C136.733,10.8583333 137.049667,12.4541667 137.683,13.8125 C138.316333,15.1708333 139.224667,16.2125 140.408,16.9375 C141.591333,17.6625 142.983,18.025 144.583,18.025 Z M144.583,16.65 C142.599667,16.65 141.062167,15.9791667 139.9705,14.6375 C138.878833,13.2958333 138.333,11.4166667 138.333,9 C138.333,6.58333333 138.878833,4.70833333 139.9705,3.375 C141.062167,2.04166667 142.599667,1.375 144.583,1.375 C146.583,1.375 148.128833,2.0375 149.2205,3.3625 C150.312167,4.6875 150.858,6.56666667 150.858,9 C150.858,11.4333333 150.308,13.3166667 149.208,14.65 C148.108,15.9833333 146.566333,16.65 144.583,16.65 Z"/>
    <path fill="#FFF" d="M0.744,33.825 L0.744,30.261 L3.204,30.261 C4.076,30.261 4.756,30.047 5.244,29.619 C5.732,29.191 5.976,28.585 5.976,27.801 C5.976,27.025 5.734,26.425 5.25,26.001 C4.766,25.577 4.084,25.365 3.204,25.365 L3.204,25.365 L0,25.365 L0,33.825 L0.744,33.825 Z M3.156,29.625 L0.744,29.625 L0.744,26.001 L3.156,26.001 C4.54,26.001 5.232,26.601 5.232,27.801 C5.232,29.017 4.54,29.625 3.156,29.625 L3.156,29.625 Z M10.6,33.825 L10.6,25.365 L9.856,25.365 L9.856,33.825 L10.6,33.825 Z M20.096,33.825 L20.096,33.177 L15.728,33.177 L15.728,25.365 L14.984,25.365 L14.984,33.825 L20.096,33.825 Z M23.328,33.825 L24.3,31.569 L28.86,31.569 L29.832,33.825 L30.588,33.825 L26.916,25.365 L26.244,25.365 L22.572,33.825 L23.328,33.825 Z M28.584,30.921 L24.576,30.921 L26.58,26.241 L28.584,30.921 Z M36.04,33.825 L36.04,26.013 L39.064,26.013 L39.064,25.365 L32.272,25.365 L32.272,26.013 L35.308,26.013 L35.308,33.825 L36.04,33.825 Z M47.72,33.825 L47.72,33.189 L43.232,33.189 L43.232,29.853 L47.48,29.853 L47.48,29.205 L43.232,29.205 L43.232,26.001 L47.72,26.001 L47.72,25.365 L42.5,25.365 L42.5,33.825 L47.72,33.825 Z M54.156,33.921 C54.756,33.921 55.282,33.823 55.734,33.627 C56.186,33.431 56.536,33.157 56.784,32.805 C57.032,32.453 57.156,32.045 57.156,31.581 C57.156,31.101 57.026,30.719 56.766,30.435 C56.506,30.151 56.188,29.941 55.812,29.805 C55.436,29.669 54.924,29.521 54.276,29.361 L54.276,29.361 L53.964,29.289 C53.292,29.129 52.782,28.935 52.434,28.707 C52.086,28.479 51.912,28.129 51.912,27.657 C51.912,27.113 52.112,26.689 52.512,26.385 C52.912,26.081 53.468,25.929 54.18,25.929 C54.676,25.929 55.128,26.011 55.536,26.175 C55.944,26.339 56.348,26.601 56.748,26.961 L56.748,26.961 L57.06,26.373 C56.7,26.013 56.274,25.739 55.782,25.551 C55.29,25.363 54.756,25.269 54.18,25.269 C53.572,25.269 53.042,25.369 52.59,25.569 C52.138,25.769 51.788,26.049 51.54,26.409 C51.292,26.769 51.168,27.189 51.168,27.669 C51.168,28.189 51.308,28.603 51.588,28.911 C51.868,29.219 52.21,29.449 52.614,29.601 C53.018,29.753 53.548,29.901 54.204,30.045 C54.7,30.157 55.096,30.267 55.392,30.375 C55.688,30.483 55.932,30.635 56.124,30.831 C56.316,31.027 56.412,31.281 56.412,31.593 C56.412,32.121 56.214,32.531 55.818,32.823 C55.422,33.115 54.868,33.261 54.156,33.261 C53.556,33.261 53.042,33.183 52.614,33.027 C52.186,32.871 51.76,32.605 51.336,32.229 L51.336,32.229 L51.024,32.817 C51.424,33.193 51.88,33.471 52.392,33.651 C52.904,33.831 53.492,33.921 54.156,33.921 Z M66.212,33.825 L67.184,31.569 L71.744,31.569 L72.716,33.825 L73.472,33.825 L69.8,25.365 L69.128,25.365 L65.456,33.825 L66.212,33.825 Z M71.468,30.921 L67.46,30.921 L69.464,26.241 L71.468,30.921 Z M77.772,33.825 L77.772,26.613 L83.136,33.825 L83.712,33.825 L83.712,25.365 L83.016,25.365 L83.016,32.565 L77.664,25.365 L77.076,25.365 L77.076,33.825 L77.772,33.825 Z M90.82,33.825 C92.156,33.825 93.19,33.457 93.922,32.721 C94.654,31.985 95.02,30.941 95.02,29.589 C95.02,28.237 94.656,27.195 93.928,26.463 C93.2,25.731 92.164,25.365 90.82,25.365 L90.82,25.365 L88.096,25.365 L88.096,33.825 L90.82,33.825 Z M90.784,33.177 L88.84,33.177 L88.84,26.013 L90.784,26.013 C93.088,26.013 94.24,27.205 94.24,29.589 C94.24,30.781 93.95,31.677 93.37,32.277 C92.79,32.877 91.928,33.177 90.784,33.177 L90.784,33.177 Z M107.676,33.825 C108.564,33.825 109.25,33.629 109.734,33.237 C110.218,32.845 110.46,32.277 110.46,31.533 C110.46,31.005 110.326,30.563 110.058,30.207 C109.79,29.851 109.412,29.613 108.924,29.493 C109.348,29.333 109.678,29.089 109.914,28.761 C110.15,28.433 110.268,28.041 110.268,27.585 C110.268,26.873 110.032,26.325 109.56,25.941 C109.088,25.557 108.42,25.365 107.556,25.365 L107.556,25.365 L104.292,25.365 L104.292,33.825 L107.676,33.825 Z M107.448,29.205 L105.024,29.205 L105.024,26.001 L107.448,26.001 C108.832,26.001 109.524,26.525 109.524,27.573 C109.524,28.101 109.348,28.505 108.996,28.785 C108.644,29.065 108.128,29.205 107.448,29.205 L107.448,29.205 Z M107.628,33.189 L105.024,33.189 L105.024,29.853 L107.628,29.853 C109.02,29.853 109.716,30.421 109.716,31.557 C109.716,32.109 109.546,32.519 109.206,32.787 C108.866,33.055 108.34,33.189 107.628,33.189 L107.628,33.189 Z M114.4,33.825 L115.372,31.569 L119.932,31.569 L120.904,33.825 L121.66,33.825 L117.988,25.365 L117.316,25.365 L113.644,33.825 L114.4,33.825 Z M119.656,30.921 L115.648,30.921 L117.652,26.241 L119.656,30.921 Z M126.008,33.825 L126.008,30.153 L127.772,30.153 C128.22,30.153 128.572,30.221 128.828,30.357 C129.084,30.493 129.308,30.745 129.5,31.113 L129.5,31.113 L130.928,33.825 L131.744,33.825 L130.232,30.993 C130.096,30.737 129.946,30.531 129.782,30.375 C129.618,30.219 129.432,30.109 129.224,30.045 C129.928,29.957 130.47,29.715 130.85,29.319 C131.23,28.923 131.42,28.397 131.42,27.741 C131.42,26.965 131.18,26.375 130.7,25.971 C130.22,25.567 129.536,25.365 128.648,25.365 L128.648,25.365 L125.264,25.365 L125.264,33.825 L126.008,33.825 Z M128.6,29.517 L125.996,29.517 L125.996,26.001 L128.6,26.001 C129.304,26.001 129.828,26.143 130.172,26.427 C130.516,26.711 130.688,27.145 130.688,27.729 C130.688,28.921 129.992,29.517 128.6,29.517 L128.6,29.517 Z M136.392,33.825 L136.392,30.153 L138.156,30.153 C138.604,30.153 138.956,30.221 139.212,30.357 C139.468,30.493 139.692,30.745 139.884,31.113 L139.884,31.113 L141.312,33.825 L142.128,33.825 L140.616,30.993 C140.48,30.737 140.33,30.531 140.166,30.375 C140.002,30.219 139.816,30.109 139.608,30.045 C140.312,29.957 140.854,29.715 141.234,29.319 C141.614,28.923 141.804,28.397 141.804,27.741 C141.804,26.965 141.564,26.375 141.084,25.971 C140.604,25.567 139.92,25.365 139.032,25.365 L139.032,25.365 L135.648,25.365 L135.648,33.825 L136.392,33.825 Z M138.984,29.517 L136.38,29.517 L136.38,26.001 L138.984,26.001 C139.688,26.001 140.212,26.143 140.556,26.427 C140.9,26.711 141.072,27.145 141.072,27.729 C141.072,28.921 140.376,29.517 138.984,29.517 L138.984,29.517 Z M151.252,33.825 L151.252,33.189 L146.764,33.189 L146.764,29.853 L151.012,29.853 L151.012,29.205 L146.764,29.205 L146.764,26.001 L151.252,26.001 L151.252,25.365 L146.032,25.365 L146.032,33.825 L151.252,33.825 Z"/>
  </g>
</svg>
